<svg xmlns="http://www.w3.org/2000/svg" width="18.031" height="17.97" viewBox="0 0 18.031 17.97">
  <defs>
    <style>
      .cls-1 {
        fill: #7e3500;
        fill-rule: evenodd;
      }
    </style>
  </defs>
  <path class="cls-1" d="M45.365,1833.37a9.007,9.007,0,1,1-1.6-13.99,0.619,0.619,0,0,1,.2.86,0.636,0.636,0,0,1-.871.21,7.74,7.74,0,1,0,1.369,12.02,7.66,7.66,0,0,0,1.089-9.58,0.63,0.63,0,0,1,1.073-.66A8.916,8.916,0,0,1,45.365,1833.37Zm-7.108-3.12a0.685,0.685,0,0,1-.467.23H37.759a0.635,0.635,0,0,1-.451-0.18l-2.939-2.93a0.637,0.637,0,0,1,.9-0.9l2.443,2.43,6.921-8.25a0.639,0.639,0,1,1,.98.82Z" transform="translate(-30 -1818.03)"/>
</svg>
